<svg width="47.000000" height="47.000000" viewBox="0 0 47 47" fill="none" xmlns="http://www.w3.org/2000/svg" xmlns:xlink="http://www.w3.org/1999/xlink">
	<desc>
			Created with Pixso.
	</desc>
	<defs>
		<clipPath id="clip201_839">
			<rect id="Calque_1" width="47.000000" height="47.000000" fill="white" fill-opacity="0"/>
		</clipPath>
		<linearGradient x1="0.000000" y1="29.116844" x2="24.302505" y2="29.116844" id="paint_linear_201_840_0" gradientUnits="userSpaceOnUse">
			<stop stop-color="#FFFFFF"/>
			<stop offset="1.000000" stop-color="#000000"/>
		</linearGradient>
		<linearGradient x1="23.110306" y1="18.284430" x2="47.412807" y2="18.284430" id="paint_linear_201_841_0" gradientUnits="userSpaceOnUse">
			<stop stop-color="#FFFFFF"/>
			<stop offset="1.000000" stop-color="#000000"/>
		</linearGradient>
		<linearGradient x1="16.301037" y1="23.683594" x2="31.077419" y2="23.683594" id="paint_linear_201_842_0" gradientUnits="userSpaceOnUse">
			<stop stop-color="#FFFFFF"/>
			<stop offset="1.000000" stop-color="#000000"/>
		</linearGradient>
		<linearGradient x1="8.769579" y1="23.671970" x2="38.620384" y2="23.671970" id="paint_linear_201_843_0" gradientUnits="userSpaceOnUse">
			<stop stop-color="#FFFFFF"/>
			<stop offset="1.000000" stop-color="#000000"/>
		</linearGradient>
		<linearGradient x1="6.201640" y1="23.683086" x2="41.107826" y2="23.683086" id="paint_linear_201_844_0" gradientUnits="userSpaceOnUse">
			<stop stop-color="#FFFFFF"/>
			<stop offset="1.000000" stop-color="#000000"/>
		</linearGradient>
		<linearGradient x1="18.410303" y1="19.820038" x2="37.680351" y2="35.352898" id="paint_linear_201_845_0" gradientUnits="userSpaceOnUse">
			<stop stop-color="#FFFFFF"/>
			<stop offset="1.000000" stop-color="#000000"/>
		</linearGradient>
	</defs>
	<g clip-path="url(#clip201_839)">
		<path id="path" d="M23.72 47.36C20.5 47.36 17.42 47.36 14.32 47.34C13.87 47.34 13.46 46.99 13.26 46.79L11.61 45.09C8.4 41.79 5.19 38.5 2 35.18C0.69 33.83 0 32.06 0 30.05L0 14.53C0 12.39 1.45 10.84 3.46 10.84C5.46 10.84 6.94 12.38 6.94 14.5C6.96 18.74 6.96 22.98 6.94 27.22C6.93 29.28 7.61 30.93 9.03 32.29C9.77 33 10.48 33.72 11.21 34.45C11.71 34.97 12.23 35.49 12.74 35.99C13.06 36.31 13.41 36.48 13.72 36.48C13.96 36.48 14.18 36.38 14.37 36.17C14.95 35.55 14.5 34.9 14.18 34.57C13.51 33.89 12.85 33.23 12.17 32.56C11.52 31.91 10.86 31.27 10.22 30.6C8.74 29.11 8.57 26.95 9.8 25.34C10.2 24.81 10.61 24.54 11.07 24.52C11.52 24.48 11.95 24.69 12.39 25.12L14.37 27.09C16.72 29.42 19.16 31.84 21.51 34.25C23.37 36.16 24.3 38.51 24.27 41.26L24.27 46.8C24.27 47.12 24.05 47.36 23.72 47.36ZM3.46 12C2.09 12 1.14 13.04 1.14 14.54L1.14 30.06C1.14 31.76 1.73 33.26 2.83 34.4C6.01 37.73 9.21 41.02 12.42 44.31L14.06 46C14.2 46.14 14.31 46.19 14.35 46.2C17.22 46.22 20.12 46.22 23.14 46.22L23.14 41.25C23.15 38.82 22.34 36.73 20.7 35.05C18.35 32.65 15.92 30.25 13.57 27.92L11.57 25.95C11.31 25.68 11.19 25.67 11.14 25.67C11.1 25.67 10.95 25.71 10.7 26.05C9.83 27.2 9.97 28.73 11.03 29.81C11.69 30.46 12.33 31.12 12.98 31.76C13.65 32.42 14.32 33.1 14.99 33.78C15.99 34.8 16.07 36.06 15.2 36.98C14.78 37.41 14.28 37.64 13.73 37.64C13.11 37.64 12.46 37.35 11.93 36.83C11.41 36.31 10.9 35.79 10.38 35.28C9.67 34.56 8.96 33.85 8.23 33.14C6.56 31.55 5.77 29.63 5.8 27.23C5.82 22.99 5.82 18.76 5.8 14.52C5.8 13.02 4.86 12 3.46 12Z" fill="url(#paint_linear_201_840_0)" fill-opacity="1.000000" fill-rule="nonzero"/>
		<path id="path" d="M43.96 36.56C42.4 36.56 41.02 35.57 40.6 34.06C40.47 33.58 40.47 33.09 40.47 32.67L40.47 28.48C40.47 25.7 40.46 22.91 40.47 20.12C40.48 18.11 39.82 16.47 38.42 15.13C37.68 14.42 36.95 13.68 36.23 12.95C35.73 12.43 35.22 11.93 34.71 11.42C34.35 11.08 33.67 10.59 33.06 11.21C32.86 11.4 32.76 11.62 32.76 11.85C32.76 12.16 32.94 12.51 33.27 12.85L34.12 13.69C35.16 14.74 36.21 15.77 37.22 16.82C38.66 18.3 38.81 20.53 37.56 22.09C37.16 22.59 36.75 22.84 36.3 22.86C35.9 22.9 35.44 22.69 35.04 22.28L32.88 20.15C30.55 17.83 28.11 15.44 25.79 13.03C24 11.18 23.09 8.87 23.12 6.16L23.12 0.6C23.12 0.28 23.37 0.03 23.69 0.03L28.71 0.03C29.04 0.03 29.38 0.03 29.7 0.02C31.63 -0.03 33.64 -0.07 35.31 1.71C37.82 4.4 40.44 7.08 42.96 9.66L45.08 11.83C46.65 13.45 47.43 15.39 47.41 17.59C47.4 21.02 47.41 24.45 47.41 27.87L47.41 33.02C47.41 34.84 46.16 36.33 44.42 36.55C44.27 36.58 44.11 36.56 43.96 36.56ZM33.7 9.76C34.32 9.76 34.95 10.05 35.51 10.61C36.02 11.11 36.53 11.63 37.04 12.15C37.76 12.87 38.47 13.59 39.21 14.3C40.83 15.86 41.63 17.82 41.61 20.14C41.6 22.92 41.61 25.71 41.61 28.49L41.61 32.68C41.61 33.06 41.61 33.45 41.7 33.78C42.01 34.87 43.1 35.57 44.28 35.42C45.44 35.27 46.27 34.27 46.27 33.03L46.27 27.89C46.27 24.46 46.26 21.03 46.27 17.59C46.3 15.67 45.63 14.05 44.27 12.63L42.16 10.46C39.62 7.87 37 5.19 34.49 2.49C33.17 1.08 31.66 1.12 29.73 1.16C29.4 1.16 29.07 1.18 28.72 1.18L24.27 1.18L24.27 6.16C24.26 8.56 25.04 10.6 26.62 12.23C28.95 14.63 31.37 17.02 33.71 19.33L35.88 21.48C36.04 21.64 36.17 21.73 36.27 21.73C36.3 21.73 36.44 21.7 36.69 21.39C37.57 20.27 37.46 18.69 36.41 17.63C35.41 16.57 34.36 15.54 33.33 14.51L32.48 13.66C31.92 13.1 31.63 12.48 31.63 11.85C31.63 11.31 31.85 10.81 32.26 10.39C32.69 9.97 33.17 9.76 33.7 9.76Z" fill="url(#paint_linear_201_841_0)" fill-opacity="1.000000" fill-rule="nonzero"/>
		<path id="path" d="M23.72 31.1C21.74 31.06 19.78 30.26 18.39 28.83C17.01 27.38 16.25 25.49 16.3 23.48C16.33 21.57 17.18 19.69 18.6 18.33C20.03 16.95 21.84 16.23 23.8 16.26C27.89 16.38 31.15 19.77 31.07 23.83C30.98 27.85 27.69 31.1 23.72 31.1ZM23.63 17.41C22.1 17.41 20.56 18.04 19.39 19.15C18.18 20.31 17.47 21.89 17.43 23.51C17.4 25.2 18.03 26.81 19.21 28.02C20.38 29.24 21.95 29.91 23.62 29.94C26.97 29.94 29.82 27.21 29.91 23.8C29.98 20.38 27.22 17.5 23.77 17.41C23.72 17.41 23.68 17.41 23.63 17.41Z" fill="url(#paint_linear_201_842_0)" fill-opacity="1.000000" fill-rule="nonzero"/>
		<path id="path" d="M25.43 38.51C25.15 38.51 24.91 38.29 24.86 38.01C24.82 37.7 25.04 37.41 25.36 37.37C32.12 36.55 37.22 31.02 37.47 24.21C37.48 23.88 37.74 23.64 38.07 23.66C38.39 23.67 38.63 23.93 38.62 24.25C38.34 31.62 32.76 37.63 25.43 38.51ZM9.34 23.48C9.02 23.47 8.74 23.2 8.76 22.88C9.15 15.56 14.71 9.66 21.99 8.83C22.3 8.8 22.59 9.03 22.62 9.34C22.66 9.65 22.43 9.93 22.12 9.97C15.4 10.73 10.27 16.17 9.91 22.93C9.9 23.24 9.65 23.48 9.34 23.48Z" fill="url(#paint_linear_201_843_0)" fill-opacity="1.000000" fill-rule="nonzero"/>
		<path id="path" d="M25.68 45.48C25.4 45.48 25.15 45.26 25.11 44.97C25.08 44.64 25.32 44.37 25.63 44.35C31.29 43.82 36.56 40.93 40.07 36.41C40.27 36.16 40.62 36.12 40.87 36.31C41.13 36.51 41.17 36.86 40.98 37.11C37.27 41.88 31.66 44.93 25.68 45.48ZM6.77 11.27C6.64 11.27 6.53 11.24 6.43 11.16C6.17 10.97 6.13 10.61 6.32 10.36C10.03 5.53 15.62 2.45 21.65 1.89C21.96 1.86 22.25 2.09 22.27 2.4C22.3 2.71 22.06 3 21.75 3.02C16.03 3.55 10.74 6.47 7.23 11.05C7.11 11.19 6.94 11.27 6.77 11.27Z" fill="url(#paint_linear_201_844_0)" fill-opacity="1.000000" fill-rule="nonzero"/>
		<path id="path" d="M21.47 25.46C21.11 25.46 20.82 25.43 20.56 25.37L20.56 24.74C20.86 24.81 21.12 24.85 21.43 24.85C21.95 24.85 22.35 24.72 22.35 24.24C22.35 23.76 21.98 23.63 21.32 23.63L21.01 23.63L21.01 23.07L21.32 23.07C21.91 23.07 22.28 22.9 22.28 22.49C22.28 22.08 21.99 21.96 21.51 21.96C21.28 21.96 20.95 22 20.72 22.07L20.72 21.49C20.92 21.42 21.26 21.37 21.59 21.37C22.45 21.37 22.99 21.66 22.99 22.44C22.99 22.9 22.77 23.17 22.33 23.32C22.84 23.43 23.09 23.79 23.09 24.3C23.09 25.08 22.54 25.46 21.47 25.46ZM25.67 22.25C26.45 22.25 26.7 22.61 26.7 23.28L26.7 25.4L25.99 25.4L25.99 23.47C25.99 23.04 25.89 22.83 25.46 22.83C25.09 22.83 24.81 22.94 24.7 23.35L24.7 25.39L23.99 25.39L23.99 21.03L24.7 21.03L24.7 22.69C24.88 22.37 25.25 22.25 25.67 22.25Z" fill="url(#paint_linear_201_845_0)" fill-opacity="1.000000" fill-rule="nonzero"/>
	</g>
</svg>
