<svg width="56.000000" height="48.000000" viewBox="0 0 56 48" fill="none" xmlns="http://www.w3.org/2000/svg" xmlns:xlink="http://www.w3.org/1999/xlink">
	<desc>
			Created with Pixso.
	</desc>
	<defs>
		<clipPath id="clip201_846">
			<rect id="Calque_1" width="56.000000" height="48.000000" fill="white" fill-opacity="0"/>
		</clipPath>
		<linearGradient x1="0.000000" y1="24.586590" x2="56.586582" y2="24.586590" id="paint_linear_201_847_0" gradientUnits="userSpaceOnUse">
			<stop stop-color="#FFFFFF"/>
			<stop offset="1.000000" stop-color="#000000"/>
		</linearGradient>
		<linearGradient x1="3.133331" y1="17.426695" x2="42.319939" y2="34.439980" id="paint_linear_201_848_0" gradientUnits="userSpaceOnUse">
			<stop stop-color="#FFFFFF"/>
			<stop offset="1.000000" stop-color="#000000"/>
		</linearGradient>
		<linearGradient x1="5.213197" y1="12.639776" x2="44.399803" y2="29.653055" id="paint_linear_201_849_0" gradientUnits="userSpaceOnUse">
			<stop stop-color="#FFFFFF"/>
			<stop offset="1.000000" stop-color="#000000"/>
		</linearGradient>
		<linearGradient x1="6.200053" y1="10.373125" x2="45.386669" y2="27.386396" id="paint_linear_201_850_0" gradientUnits="userSpaceOnUse">
			<stop stop-color="#FFFFFF"/>
			<stop offset="1.000000" stop-color="#000000"/>
		</linearGradient>
		<linearGradient x1="4.226808" y1="14.919773" x2="43.413425" y2="31.933052" id="paint_linear_201_851_0" gradientUnits="userSpaceOnUse">
			<stop stop-color="#FFFFFF"/>
			<stop offset="1.000000" stop-color="#000000"/>
		</linearGradient>
	</defs>
	<g clip-path="url(#clip201_846)">
		<path id="path" d="M49.58 12.29L42.43 0.08L28.29 0L14.14 0.08L7 12.29L0 24.58L7 36.87L14.14 49.08L28.29 49.15L42.43 49.08L49.58 36.86L56.58 24.57L49.58 12.29ZM48.42 12.96L54.66 23.91L49.52 23.91L44.54 15.2L39.41 6.42L41.98 1.97L48.42 12.96ZM38.33 41.97L28.29 42.02L18.25 41.97L13.18 33.3L8.21 24.57L13.17 15.85L18.24 7.18L28.28 7.13L38.31 7.18L43.38 15.85L48.35 24.58L43.39 33.3L38.33 41.97ZM40.77 1.41L38.2 5.86L28.29 5.81L18.26 5.86L15.69 1.41L28.29 1.33L40.77 1.41ZM8.15 12.96L14.53 2.06L17.1 6.52L12.02 15.19L7.06 23.91L1.91 23.91L8.15 12.96ZM1.91 25.25L7.06 25.25L12.04 33.98L17.06 42.57L14.49 47.02L8.15 36.21L1.91 25.25ZM15.6 47.77L18.17 43.31L28.29 43.37L38.29 43.31L40.86 47.77L28.29 47.85L15.6 47.77ZM48.43 36.21L42.05 47.13L39.48 42.67L44.57 33.98L49.53 25.26L54.67 25.26L48.43 36.21Z" fill="url(#paint_linear_201_847_0)" fill-opacity="1.000000" fill-rule="nonzero"/>
		<path id="polygon" d="M20.48 23.45L17.08 23.45L17.08 20.52L15.89 20.52L15.89 27.91L17.08 27.91L17.08 24.43L20.48 24.43L20.48 27.91L21.67 27.91L21.67 20.52L20.48 20.52L20.48 23.45Z" fill="url(#paint_linear_201_848_0)" fill-opacity="1.000000" fill-rule="nonzero"/>
		<path id="path" d="M31.89 20.41C30.29 20.41 29.31 21.27 29.31 24.22C29.31 27.17 30.29 28.03 31.89 28.03C33.49 28.03 34.46 27.21 34.46 24.22C34.46 21.23 33.53 20.41 31.89 20.41ZM31.89 27.03C30.9 27.03 30.5 26.43 30.5 24.22C30.5 22.01 30.9 21.42 31.89 21.42C32.87 21.42 33.29 22.03 33.29 24.22C33.29 26.41 32.89 27.03 31.89 27.03Z" fill="url(#paint_linear_201_849_0)" fill-opacity="1.000000" fill-rule="nonzero"/>
		<path id="path" d="M38.09 20.41C36.49 20.41 35.52 21.27 35.52 24.22C35.52 27.17 36.49 28.03 38.09 28.03C39.69 28.03 40.66 27.21 40.66 24.22C40.66 21.23 39.73 20.41 38.09 20.41ZM38.09 27.03C37.1 27.03 36.7 26.43 36.7 24.22C36.7 22.01 37.1 21.42 38.09 21.42C39.08 21.42 39.49 22.03 39.49 24.22C39.49 26.41 39.09 27.03 38.09 27.03Z" fill="url(#paint_linear_201_850_0)" fill-opacity="1.000000" fill-rule="nonzero"/>
		<path id="path" d="M26.98 24.11C27.7 23.82 28.05 23.27 28.05 22.39C28.05 21.15 27.28 20.41 25.7 20.41C24.13 20.41 23.34 21.15 23.34 22.39C23.34 23.27 23.73 23.77 24.38 24.07C23.54 24.39 23.12 25.05 23.12 25.97C23.12 27.34 24.05 28.03 25.7 28.03C27.36 28.03 28.29 27.35 28.29 25.98C28.29 24.9 27.78 24.37 26.98 24.11ZM25.7 21.33C26.56 21.33 27.01 21.74 27.01 22.48C27.01 23.21 26.61 23.67 25.7 23.67C24.8 23.67 24.4 23.27 24.4 22.48C24.4 21.67 24.84 21.33 25.7 21.33ZM25.7 27.09C24.68 27.09 24.2 26.66 24.2 25.89C24.2 24.98 24.69 24.54 25.7 24.54C26.72 24.54 27.21 24.99 27.21 25.89C27.21 26.65 26.72 27.09 25.7 27.09Z" fill="url(#paint_linear_201_851_0)" fill-opacity="1.000000" fill-rule="nonzero"/>
	</g>
</svg>
