<svg width="46.000000" height="54.000000" viewBox="0 0 46 54" fill="none" xmlns="http://www.w3.org/2000/svg" xmlns:xlink="http://www.w3.org/1999/xlink">
	<desc>
			Created with Pixso.
	</desc>
	<defs>
		<clipPath id="clip201_852">
			<rect id="Calque_1" width="46.000000" height="54.000000" fill="white" fill-opacity="0"/>
		</clipPath>
		<linearGradient x1="0.000000" y1="26.894529" x2="46.499271" y2="26.894529" id="paint_linear_201_853_0" gradientUnits="userSpaceOnUse">
			<stop stop-color="#FFFFFF"/>
			<stop offset="1.000000" stop-color="#000000"/>
		</linearGradient>
		<linearGradient x1="14.207403" y1="26.894629" x2="32.291908" y2="26.894629" id="paint_linear_201_854_0" gradientUnits="userSpaceOnUse">
			<stop stop-color="#FFFFFF"/>
			<stop offset="1.000000" stop-color="#000000"/>
		</linearGradient>
	</defs>
	<g clip-path="url(#clip201_852)">
		<path id="path" d="M23.24 0L0 7.58L0 20.82C0 35.49 9.25 48.71 23.02 53.69L23.24 53.77L23.47 53.69C37.24 48.7 46.49 35.49 46.49 20.82L46.49 7.58L23.24 0ZM40.74 11.41L23.93 5.92L23.93 1.6L44.55 8.33L40.74 11.41ZM23.24 46.67C13.06 42.85 6.24 33.01 6.24 22.11L6.24 12.64L23.24 7.08L40.25 12.64L40.25 22.11C40.25 33.01 33.43 42.87 23.24 46.67ZM5.78 11.4L1.97 8.33L22.61 1.59L22.61 5.91L5.78 11.4ZM1.31 20.82L1.31 9.49L4.92 12.4L4.92 22.11C4.92 33.5 12.02 43.77 22.61 47.83L22.61 52.12C9.84 47.09 1.31 34.65 1.31 20.82ZM23.93 52.1L23.93 47.82C34.5 43.75 41.57 33.49 41.57 22.12L41.57 12.44L45.18 9.53L45.18 20.83C45.18 34.62 36.68 47.05 23.93 52.1Z" fill="url(#paint_linear_201_853_0)" fill-opacity="1.000000" fill-rule="nonzero"/>
		<path id="path" d="M27.77 20.49C26.6 18.92 25.43 17.53 24.66 16.63C24.3 16.2 23.98 15.84 23.74 15.58L23.26 15.04L22.77 15.58C22.54 15.84 22.22 16.2 21.85 16.63C21.08 17.53 19.91 18.92 18.75 20.49C17.44 22.24 16.4 23.86 15.65 25.28C14.72 27.06 14.24 28.54 14.24 29.68C14.24 34.67 18.3 38.74 23.28 38.74C28.27 38.74 32.33 34.67 32.33 29.68C32.33 28.54 31.85 27.06 30.91 25.28C30.16 23.86 29.07 22.25 27.77 20.49ZM23.24 37.41C18.99 37.41 15.52 33.94 15.52 29.67C15.52 28.76 15.95 27.46 16.78 25.89C17.5 24.52 18.51 22.98 19.78 21.27C20.92 19.73 22.06 18.37 22.82 17.49C22.97 17.31 23.11 17.16 23.24 17C23.38 17.14 23.52 17.3 23.67 17.49C24.43 18.37 25.57 19.74 26.71 21.27C27.99 22.98 29 24.53 29.71 25.89C30.54 27.44 30.97 28.76 30.97 29.67C30.97 33.94 27.5 37.41 23.24 37.41Z" fill="url(#paint_linear_201_854_0)" fill-opacity="1.000000" fill-rule="nonzero"/>
	</g>
</svg>
